# xmcd
#
# Track frame offsets:
#	150
#	13751
#	25704
#	38146
#	52573
#	62184
#	78306
#	91511
#	101777
#	115846
#	128007
#	140989
#	152609
#	163359
#	175054
#	189999
#
# Disc length: 2673 seconds
#
# Revision: 0
# Processed by: cddbd v1.5.2PL0 Copyright (c) Steve Scherf et al.
# Submitted via: dBpowerAMP V4.0
#
DISCID=c50a6f10
DTITLE=Various Artist - County Rodeo
DYEAR=1900
DGENRE=Country
TTITLE0=mixed - im gonna sing you a sad song susie - kenny rogers
TTITLE1=cigarettes whusky and wild wild women - red ingle &the natural sever
TTITLE2=barefooted little cowboy - little jimmy dickens
TTITLE3=leanin on the old top rail - patti page
TTITLE4=your cheatin heart - freddy fender
TTITLE5=green light - commander cody and his lost planet airman
TTITLE6=help me under stand - hank williams
TTITLE7=walking dream - pasty cline
TTITLE8=milk cow blues - maddox brothers and roses
TTITLE9=im casting my lasso towards the sky - slim whitman
TTITLE10=drinkin wine spo dee odee - malcolm yelvington
TTITLE11=jambalaya - frankie laine
TTITLE12=somebody you will pay - miller sisters
TTITLE13=rodeo cowboy - lynn anderson
TTITLE14=old shep - red foley
TTITLE15=if you anit lovin - faron young
EXTD=cd 1 of 20  20 essential cds for for sing round the campfire\n(thats whats on box) got box set of bid up tv
EXTT0=
EXTT1=
EXTT2=
EXTT3=
EXTT4=
EXTT5=
EXTT6=
EXTT7=
EXTT8=
EXTT9=
EXTT10=
EXTT11=
EXTT12=
EXTT13=
EXTT14=
EXTT15=
PLAYORDER=
